<?xml version="1.0" standalone="no"?>
<!DOCTYPE svg PUBLIC "-//W3C//DTD SVG 20010904//EN"
 "http://www.w3.org/TR/2001/REC-SVG-20010904/DTD/svg10.dtd">
<svg version="1.0" xmlns="http://www.w3.org/2000/svg"
 width="150.000000pt" height="150.000000pt" viewBox="0 0 150.000000 150.000000"
 preserveAspectRatio="xMidYMid meet">
<metadata>
Created by potrace 1.14, written by Peter Selinger 2001-2017
</metadata>
<g transform="translate(0.000000,150.000000) scale(0.100000,-0.100000)"
fill="#000000" stroke="none">
<path d="M579 1343 c-102 -29 -195 -83 -269 -155 -61 -59 -80 -84 -127 -167
-29 -52 -34 -56 -72 -59 -23 -2 -41 -7 -41 -11 0 -9 110 -153 125 -163 5 -4
13 -7 16 -5 15 5 138 165 132 171 -4 3 -15 6 -25 6 -21 0 -22 7 -5 36 63 107
203 205 336 235 143 32 325 -15 436 -113 54 -48 109 -130 137 -205 25 -69 36
-82 71 -88 19 -4 33 1 48 16 29 29 20 88 -27 188 -72 149 -238 281 -407 325
-89 22 -227 18 -328 -11z"/>
<path d="M519 841 c-21 -21 -29 -39 -29 -65 0 -100 136 -126 175 -33 17 40 8
73 -27 102 -40 34 -82 33 -119 -4z"/>
<path d="M838 854 c-48 -26 -60 -71 -33 -123 53 -103 209 -20 159 85 -24 51
-75 66 -126 38z"/>
<path d="M1218 636 c-37 -46 -64 -87 -61 -90 4 -3 15 -6 25 -6 24 0 23 -10 -8
-55 -118 -174 -350 -263 -549 -210 -172 46 -292 155 -350 320 -22 62 -50 88
-84 80 -57 -13 -65 -65 -26 -159 66 -160 201 -287 380 -357 51 -20 153 -31
235 -26 220 14 415 135 527 329 45 76 47 78 84 78 22 0 39 3 39 8 0 6 -54 80
-106 145 -12 15 -26 27 -31 27 -5 0 -39 -38 -75 -84z"/>
</g>
</svg>
